<svg width="231" height="39" viewBox="0 0 231 39" fill="none" xmlns="http://www.w3.org/2000/svg">
<g clip-path="url(#clip0_2385_2004)">
<path fill-rule="evenodd" clip-rule="evenodd" d="M49.5705 11.5213V10.1249C49.5286 10.0514 49.4151 9.06576 49.3868 8.87526C49.33 8.50786 49.203 8.02186 49.1048 7.68426C48.8791 6.93421 48.5832 6.27261 48.2293 5.65606C47.5946 4.53866 46.5506 3.34771 45.5066 2.62781C44.2505 1.76086 43.3199 1.27486 41.7251 0.731857C41.0469 0.481457 40.16 0.30411 39.4398 0.17231L37.0965 -0.150391H36.9847H36.9128H36.8996H34.6562L33.8662 -0.10659V-0.0632401C36.8844 -0.0632401 39.8627 1.03931 41.6832 2.30381C42.7272 3.02371 43.5172 3.83371 44.2221 4.92136C44.7733 5.77346 45.4215 7.58221 45.4215 8.94881V9.49176C45.4215 12.2114 44.4207 14.4462 43.5456 16.2839C43.1366 17.1373 42.4449 18.2096 41.9089 18.9448C41.6265 19.3275 41.3022 19.8266 40.9919 20.1659C40.7798 20.3998 40.16 21.1197 40.0181 21.3416H45.8877C46.8479 19.8568 47.4676 18.7092 48.2445 16.9901C48.5265 16.3421 48.9494 15.1814 49.0912 14.4462C49.1899 13.9768 49.3165 13.521 49.3868 13.035C49.4151 12.8143 49.5138 11.6097 49.5705 11.5213Z" fill="#1F1A17"/>
<path fill-rule="evenodd" clip-rule="evenodd" d="M6.88721 20.9008V21.6641C6.88721 22.9873 7.73434 24.4287 8.48076 25.0019C9.31435 25.6333 10.6691 26.2511 12.1221 26.2511H44.7737C44.9007 26.2511 48.9781 23.5902 49.0903 23.4146H32.2298H23.7913C22.6202 23.4146 20.6728 23.5319 19.6571 23.3699C18.9654 23.2513 18.6415 23.0608 18.3024 22.5612C18.0619 22.2087 17.738 21.5471 17.738 20.9442V20.8558C17.738 19.8268 19.5721 16.7696 20.0377 15.7708C20.8146 14.1521 21.7168 12.4917 22.55 10.9032C23.3967 9.31631 24.2853 7.62576 25.0474 6.02361C25.428 5.21531 25.9225 4.40531 26.3031 3.58341C26.5288 3.12716 27.4741 1.45191 27.558 1.11426H26.6977C26.2333 1.11426 23.5521 2.12666 23.0144 2.33376C21.8303 2.78956 20.7579 3.36271 19.6288 3.84746C18.7118 4.22971 13.8291 7.00791 13.4633 7.50711C13.2931 7.74266 12.7851 8.83161 12.6149 9.16921C12.3478 9.72706 12.037 10.2569 11.7699 10.8011C11.2335 11.9037 10.5972 12.9913 10.076 14.0939C9.55482 15.1964 8.91851 16.2704 8.39732 17.3879C8.02986 18.1511 6.88721 19.9888 6.88721 20.9008Z" fill="#D9261C"/>
<path fill-rule="evenodd" clip-rule="evenodd" d="M-0.16748 27.0294V28.7783C-0.110726 28.8667 -0.0121025 29.8957 0.0298161 30.1015C0.114898 30.5573 0.200022 30.8813 0.327022 31.2924C0.565788 32.0272 0.876556 32.6888 1.22923 33.3202C1.92059 34.498 2.97939 35.5988 4.06534 36.3489C5.27784 37.1874 6.46366 37.7469 8.01574 38.2312C8.80572 38.4668 9.56906 38.5403 10.3726 38.7457C10.6698 38.8342 12.9412 38.9813 12.9831 39.0098H15.0156C15.0995 38.9515 16.8632 38.8626 17.132 38.8342C17.7235 38.761 18.5152 38.6139 19.1214 38.5102C20.3479 38.3048 21.759 37.9808 22.8466 37.6283C24.0591 37.2307 25.1883 36.9233 26.3174 36.4522C27.4316 35.9815 28.4337 35.5402 29.5196 35.0559C31.3833 34.2323 33.7956 32.7772 35.404 31.6462C36.2926 31.0284 37.3083 30.3519 38.1 29.6754C38.5644 29.2643 40.3434 27.8815 40.5686 27.5154C37.9014 27.5154 35.2071 27.4988 32.526 27.5154C32.2004 27.5154 30.3245 28.7349 29.9003 28.9687C29.0269 29.4832 28.1382 29.8523 27.2195 30.3217C24.3415 31.8218 18.599 33.5558 14.3243 33.5558H13.025C10.1753 33.5558 7.24055 32.5719 5.51831 31.3809C3.85322 30.2184 1.99082 27.8679 1.99082 25.045V24.0892C1.99082 21.7221 3.04969 19.3117 3.86804 17.7533C4.34772 16.8562 4.85533 16.033 5.43323 15.2391C5.63177 14.9602 7.1703 12.9907 7.18384 12.9609C6.70417 13.2981 5.12417 15.2544 4.69995 15.8272C3.90997 16.9148 3.27532 17.8269 2.57042 19.003C1.87867 20.1638 1.37106 21.325 0.834636 22.6626C0.650881 23.1338 0.298654 24.2214 0.228358 24.721L-0.16748 26.7939V26.9108V26.9695V27.0294Z" fill="#1F1A17"/>
<path fill-rule="evenodd" clip-rule="evenodd" d="M109.343 16.5078H106.299H106.27C106.27 21.3334 106.264 26.2487 106.264 31.0772C106.239 31.3068 106.087 31.4688 105.879 31.5347H90.4344C90.2269 31.4688 90.0729 31.3068 90.0462 31.0772C90.0462 26.2487 90.0417 21.3334 90.0417 16.5078H90.015H86.9694H86.9126V16.5618V28.4644C86.9126 31.1193 89.1861 33.2912 91.9608 33.2912H91.9623H104.35H104.351C107.126 33.2912 109.399 31.1193 109.399 28.4644V16.5618V16.5078H109.342H109.343Z" fill="#1F1A17"/>
<path fill-rule="evenodd" clip-rule="evenodd" d="M142.215 23.4495H160.507V23.451C160.782 23.451 161.013 23.9277 161.029 24.1815V24.2474C161.013 24.486 160.808 24.9554 160.548 24.9779H142.215C142.215 27.0631 142.243 29.0819 142.246 31.1008C142.267 31.3304 142.415 31.5238 142.623 31.6004H160.663C161.229 31.6004 161.257 33.3016 160.516 33.3207H143.862C141.089 33.3207 138.817 31.2224 138.817 28.6542V21.1754C138.817 18.6102 141.089 16.5088 143.862 16.5088L160.798 16.5078C161.084 16.5078 161.305 16.8603 161.305 17.1303C161.305 17.3986 161.084 17.7974 160.798 17.7974C160.782 17.7974 146.456 17.7843 142.711 17.7885C142.491 17.8187 142.308 17.9837 142.246 18.1967C142.243 20.133 142.215 21.5115 142.215 23.4496V23.4495Z" fill="#1F1A17"/>
<path fill-rule="evenodd" clip-rule="evenodd" d="M184.104 31.1574C184.062 31.3568 183.914 31.5175 183.724 31.5852H168.284C168.093 31.5175 167.947 31.3568 167.905 31.1574V18.2756C167.934 18.0295 168.12 17.8317 168.356 17.782H183.651C183.886 17.8317 184.072 18.0295 184.104 18.2756V31.1574ZM187.221 21.6955C186.961 19.2162 184.8 16.5068 182.192 16.5068H182.191H169.816H169.815C167.207 16.5068 165.048 19.2162 164.786 21.6955C164.77 21.8622 164.77 28.9136 164.786 29.071C165.048 31.4427 167.207 33.3144 169.815 33.3144H169.816H182.191H182.192C184.8 33.3144 186.961 31.4427 187.221 29.071C187.239 28.9136 187.239 21.8622 187.221 21.6955Z" fill="#1F1A17"/>
<path fill-rule="evenodd" clip-rule="evenodd" d="M133.082 16.5078H135.318L125.843 24.4203L135.341 33.335H130.873L123.478 26.3941L115.171 33.335H112.931L122.425 25.4059L112.942 16.5078H117.416L124.785 23.4305L133.082 16.5078Z" fill="#1F1A17"/>
<path fill-rule="evenodd" clip-rule="evenodd" d="M64.9912 31.55C64.6835 31.5407 64.4354 31.2754 64.4354 30.9526L64.4339 16.5078H61.0063V28.4912C61.0063 31.1478 63.284 33.3184 66.0694 33.3184H82.9612C83.6944 33.3184 83.6555 31.556 82.9298 31.556C80.5056 31.556 67.4165 31.55 64.991 31.55H64.9912Z" fill="#1F1A17"/>
<path fill-rule="evenodd" clip-rule="evenodd" d="M213.143 20.8444C212.883 18.4174 210.725 16.5078 208.117 16.5078H208.116H195.739H195.738C193.13 16.5078 190.972 18.4174 190.712 20.8444C190.696 21.0064 190.687 21.1701 190.687 21.3364V33.3244H193.816C193.816 28.3249 193.829 23.294 193.829 18.2945C193.874 18.0411 194.07 17.8446 194.311 17.8085H209.544C209.786 17.8446 209.982 18.0411 210.027 18.2945C210.027 23.294 210.04 28.3249 210.04 33.3244H213.169V21.3364C213.169 21.1701 213.161 21.0064 213.143 20.8444H213.143Z" fill="#1F1A17"/>
</g>
<defs>
<clipPath id="clip0_2385_2004">
<rect width="231" height="39" fill="white"/>
</clipPath>
</defs>
</svg>
