<svg width="18" height="18" viewBox="0 0 18 18" fill="none" xmlns="http://www.w3.org/2000/svg">
<path d="M17.0892 15.9104L14.0209 12.842C15.2209 11.3408 15.8006 9.43695 15.6407 7.52163C15.4808 5.60632 14.5936 3.82493 13.1612 2.5434C11.7288 1.26187 9.86012 0.577483 7.93888 0.63083C6.01765 0.684176 4.18978 1.4712 2.83073 2.83025C1.47169 4.18929 0.684665 6.01716 0.631318 7.9384C0.577971 9.85963 1.26235 11.7284 2.54389 13.1607C3.82542 14.5931 5.6068 15.4803 7.52212 15.6402C9.43743 15.8001 11.3413 15.2205 12.8425 14.0204L15.9109 17.0887L17.0892 15.9104ZM8.1667 13.9995C7.01297 13.9995 5.88516 13.6574 4.92587 13.0164C3.96658 12.3755 3.21891 11.4644 2.7774 10.3985C2.33589 9.33263 2.22037 8.15974 2.44545 7.02818C2.67053 5.89663 3.2261 4.85723 4.04191 4.04142C4.85771 3.22561 5.89711 2.67004 7.02867 2.44496C8.16023 2.21988 9.33312 2.3354 10.399 2.77691C11.4649 3.21842 12.376 3.9661 13.0169 4.92538C13.6579 5.88467 14 7.01249 14 8.16621C13.9983 9.71276 13.3831 11.1955 12.2895 12.2891C11.196 13.3826 9.71325 13.9978 8.1667 13.9995Z" fill="#9A9AB0"/>
</svg>
